<svg width="104" height="104" viewBox="0 0 104 104" fill="none" xmlns="http://www.w3.org/2000/svg">
<circle cx="52.0029" cy="52" r="51.9971" fill="white"/>
<path d="M29.0174 72.1563C28.2364 72.9374 28.2364 74.2037 29.0174 74.9848C29.7985 75.7658 31.0648 75.7658 31.8459 74.9848L29.0174 72.1563ZM75.5722 30.43C75.5722 29.3255 74.6767 28.43 73.5722 28.43L55.5722 28.43C54.4676 28.43 53.5722 29.3255 53.5722 30.43C53.5722 31.5346 54.4676 32.43 55.5722 32.43L71.5722 32.43L71.5722 48.43C71.5722 49.5346 72.4676 50.43 73.5722 50.43C74.6767 50.43 75.5722 49.5346 75.5722 48.43L75.5722 30.43ZM31.8459 74.9848L74.9864 31.8443L72.1579 29.0158L29.0174 72.1563L31.8459 74.9848Z" fill="black"/>
</svg>