<svg xmlns="http://www.w3.org/2000/svg" width="85" height="48" viewBox="0 0 85 48" fill="none">
<path d="M1 24C1 11.2975 11.2975 1 24 1H61C73.7026 1 84 11.2975 84 24C84 36.7025 73.7025 47 61 47H24C11.2975 47 1 36.7025 1 24Z" stroke="#365413" stroke-width="2"/>
<path d="M25 16.7273C25 16.3256 25.3256 16 25.7273 16H59.2727C59.6744 16 60 16.3256 60 16.7273C60 17.1289 59.6744 17.4545 59.2727 17.4545H25.7273C25.3256 17.4545 25 17.1289 25 16.7273Z" fill="#365413"/>
<path d="M25 24C25 23.5983 25.3256 23.2727 25.7273 23.2727H59.2727C59.6744 23.2727 60 23.5983 60 24C60 24.4016 59.6744 24.7273 59.2727 24.7273H25.7273C25.3256 24.7273 25 24.4016 25 24Z" fill="#365413"/>
<path d="M25 31.2727C25 30.871 25.3256 30.5454 25.7273 30.5454H59.2727C59.6744 30.5454 60 30.871 60 31.2727C60 31.6743 59.6744 32 59.2727 32H25.7273C25.3256 32 25 31.6743 25 31.2727Z" fill="#365413"/>
</svg>